<?xml version="1.0" standalone="no"?><!DOCTYPE svg PUBLIC "-//W3C//DTD SVG 1.1//EN" "http://www.w3.org/Graphics/SVG/1.1/DTD/svg11.dtd"><svg t="1729153821965" class="icon" viewBox="0 0 1024 1024" version="1.1" xmlns="http://www.w3.org/2000/svg" p-id="1182" xmlns:xlink="http://www.w3.org/1999/xlink" width="200" height="200"><path d="M341.3 341.3c142.1-56.8 255.8-56.8 341 0 28.4-56.8 42.6-99.5 42.6-127.9L597 170.8H383.9l-42.6 42.6v127.9z" fill="#86B73F" p-id="1183"></path><path d="M320 372.7V204.6l55.1-55.1h225.4L746.2 198v15.4c0 32.1-14.7 77-44.9 137.4l-10.8 21.6-20-13.4c-38.9-25.9-85.1-39-137.4-39-53.8 0-115.7 13.8-183.9 41.1L320 372.7z m213.1-95.4c51.9 0 98.9 11.3 140.1 33.6 12.7-27.4 25-58.3 29-82.7L593.5 192H392.7l-30.1 30.1v88.2c61.9-21.8 119.2-33 170.5-33z" fill="#333333" p-id="1184"></path><path d="M662.1 165.5c18.8-11.4 50.5-16.4 116.7-27.7 13.2-2.6 20.1-2.4 20.7 0.7 0.4 2.2-0.1 4.5-1.5 6.4-62.7 87.5-115.4 153.4-106.4 208.7" fill="#86B73F" p-id="1185"></path><path d="M670.6 357c-9.4-57.2 33.2-118 88.2-194.2-46.1 7.9-72.5 13-85.6 20.9l-22-36.5c21.5-13 51.2-18.1 116.3-29.2l7.5-1.3c15.3-3 26.6-3.6 35.6 2.7 5.3 3.7 8.8 9.1 9.9 15.4 1.3 7.8-0.5 16-5.2 22.4-5.9 8.3-11.8 16.4-17.5 24.3-51.3 71.1-91.9 127.2-85.1 168.5l-42.1 7z" fill="#333333" p-id="1186"></path><path d="M363.6 163.7c-11.6-6.7-52.8-15.3-123.7-25.8-3.6-0.6-7.1 1.8-7.7 5.4-0.3 1.8 0.1 3.6 1.1 5 64.7 90.9 111.7 153.4 104 194.3" fill="#86B73F" p-id="1187"></path><path d="M358.3 346.7l-41.9-7.9c5.5-29.4-38-90.4-88.4-161.1-3.9-5.5-8-11.2-12.1-16.9-4.3-6.1-6-13.7-4.8-21 1.3-7.4 5.4-13.8 11.5-18.1 6-4.2 13.3-5.9 20.6-4.7 97 14.4 120.7 22.4 131 28.4l-21.2 37c-2.9-1.6-16.9-7.3-82.1-17.9 58.2 81.7 95.9 137 87.4 182.2z" fill="#333333" p-id="1188"></path><path d="M565.2 165.7c14.1-17.5 38.9-31 90.6-60.3 11.7-7.1 18.3-9.3 19.8-6.5 1.1 2 1.4 4.3 0.8 6.5-33.6 117.1-31.6 192.2 5.9 225" fill="#86B73F" p-id="1189"></path><path d="M668.2 346.5c-40.4-35.4-47.6-104.7-21.8-211.3-35.9 20.3-54.9 31.8-64.7 43.9l-33.1-26.8c16.1-19.9 41-34 90.7-62L645 87c13.4-8.1 23.9-12.6 34.6-9.8 6.3 1.6 11.4 5.6 14.6 11.2 3.9 6.9 4.9 15.3 2.7 22.9-38.6 134.5-21.6 184.7-0.5 203.1l-28.2 32.1z" fill="#333333" p-id="1190"></path><path d="M460.9 166.4c-22.4-29.9-53.5-53.3-93.3-70.2-6.5-2.8-14 0.3-16.8 6.8-1.1 2.7-1.3 5.7-0.5 8.5 32.2 114.5 29.8 188-7.2 220.5" fill="#86B73F" p-id="1191"></path><path d="M357.2 348l-28.1-32.1c20.7-18.2 37.7-67.4 0.8-198.7-2.1-7.4-1.6-15.5 1.4-22.6 7.4-17.3 27.4-25.4 44.7-18 43.2 18.3 77.5 44.3 102 77l-34.1 25.5c-16.9-22.5-39.8-41.2-68.2-55.7 29.6 114.2 23.5 187.7-18.5 224.6z" fill="#333333" p-id="1192"></path><path d="M438 277.3c-6.5-47.7 14.6-106.8 63.5-177.2 4-5.8 12-7.3 17.8-3.2 1.2 0.8 2.3 1.9 3.1 3.1 53 74.3 74.1 133.4 63.3 177.4" fill="#86B73F" p-id="1193"></path><path d="M606.3 282.4l-41.4-10.2c4.4-17.8 2-39.6-7.1-65.1-8.9-24.9-24.3-53.4-45.8-84.8-40.6 61.1-58.4 112.2-53 152.1l-42.2 5.8c-3.7-27.2 0.3-57.5 12-90.2 9.4-26.3 24-54.8 43.6-85.1l-0.3-0.2 11.7-16.9c5.2-7.5 13-12.5 21.9-14.1 9-1.6 18 0.3 25.5 5.5 3.2 2.3 6.1 5 8.3 8.2 57.5 80.5 79.3 144.2 66.8 195z" fill="#333333" p-id="1194"></path><path d="M512.5 279.5c143.8 0 262.7 111.8 271.7 255.3l9.7 155c8.8 141-98.3 262.4-239.3 271.2-5.3 0.3-10.6 0.5-16 0.5h-52.3c-141.2 0-255.8-114.5-255.8-255.8 0-5.3 0.2-10.6 0.5-16l9.7-155c9.1-143.4 128-255.2 271.8-255.2z" fill="#FBC323" p-id="1195"></path><path d="M538.6 982.9h-52.3c-74 0-143.6-28.8-195.9-81.1-52.3-52.3-81.1-121.9-81.1-195.9 0-5.7 0.2-11.5 0.5-17.3l9.7-155c4.7-74.8 37.3-144.3 92-195.6 54.6-51.3 126-79.6 201-79.6s146.3 28.3 201 79.6c54.6 51.3 87.3 120.8 92 195.6l9.7 155c4.6 73.9-19.8 145.1-68.8 200.6s-116.6 88.6-190.5 93.2c-5.7 0.3-11.5 0.5-17.3 0.5z m-26.1-682c-64.1 0-125.1 24.2-171.8 68-46.7 43.9-74.6 103.3-78.6 167.2l-9.7 155c-0.3 4.9-0.5 9.8-0.5 14.6 0 62.6 24.4 121.5 68.7 165.8 44.3 44.3 103.2 68.7 165.8 68.7h52.3c4.9 0 9.8-0.2 14.6-0.5 62.5-3.9 119.7-31.9 161.2-78.9 41.4-47 62.1-107.2 58.2-169.7l-9.7-155c-4-64-31.9-123.3-78.6-167.2-46.8-43.9-107.8-68-171.9-68z" fill="#333333" p-id="1196"></path><path d="M384.2 286.9c10.2-5.9 23.2-2.4 29.1 7.8l327.1 568.1c5.9 10.2 2.4 23.2-7.8 29.1-10.2 5.9-23.2 2.4-29.1-7.8L376.4 316c-5.9-10.2-2.4-23.2 7.8-29.1zM517.3 269.6l0.4-0.2c10.3-5.3 23-1.3 28.5 9l250.1 469c4.3 8.1 3 18.1-3.4 24.8l-3.5 3.6c-5.7 5.9-15.1 6.1-21.1 0.5-1.1-1.1-2.1-2.3-2.8-3.7L508.5 298c-5.5-10.1-1.7-22.7 8.4-28.2 0.1 0 0.2-0.1 0.4-0.2zM285.2 374.3c10.2-5.9 23.2-2.4 29.1 7.7l319.4 550.1c5.9 10.2 2.4 23.2-7.7 29.1-10.2 5.9-23.2 2.4-29.1-7.8l-319.4-550c-5.9-10.2-2.5-23.2 7.7-29.1zM232.6 558.5l0.5-0.3c10-5.8 22.7-2.5 28.8 7.3l232.8 377.2c6 9.7 3 22.5-6.7 28.5-0.2 0.1-0.3 0.2-0.5 0.3l-0.5 0.3c-10 5.8-22.7 2.5-28.8-7.3L225.3 587.3c-6-9.7-3-22.5 6.7-28.5l0.6-0.3z" fill="#333333" p-id="1197"></path><path d="M778.4 466.2l0.2 0.2c8.1 8.4 7.9 21.7-0.5 29.8l-0.2 0.2L336 913.9c-8.5 8-21.9 7.7-30-0.7l-0.2-0.2c-8.1-8.4-7.9-21.7 0.5-29.8l0.2-0.2 441.9-417.6c8.5-7.9 21.9-7.6 30 0.8zM806.1 625.5l0.6 0.7c7.8 8.1 7.6 21-0.5 28.8-0.2 0.2-0.4 0.4-0.7 0.6l-354 312.8c-8.5 7.6-21.5 7-29.4-1.2l-0.6-0.7c-7.8-8.1-7.6-21 0.5-28.8 0.2-0.2 0.4-0.4 0.7-0.6l354-312.8c8.5-7.5 21.5-7 29.4 1.2zM719.5 350.6l0.1 0.1c8.1 8.4 7.9 21.8-0.5 29.9l-0.1 0.1-452 429.9c-8.5 8.1-21.9 7.8-30-0.6l-0.1-0.1c-8.1-8.4-7.9-21.8 0.5-29.9l0.1-0.1 452-429.9c8.5-8.1 21.9-7.8 30 0.6zM610.9 278.9l0.2 0.2c8.1 8.3 7.8 21.6-0.5 29.7-0.1 0.1-0.2 0.1-0.2 0.2L256.8 640.2c-8.5 8-21.8 7.6-29.9-0.7l-0.2-0.2c-8.1-8.3-7.8-21.6 0.5-29.7 0.1-0.1 0.2-0.1 0.2-0.2L581 278.1c8.5-7.9 21.8-7.6 29.9 0.8z" fill="#333333" p-id="1198"></path></svg>