<?xml version="1.0" standalone="no"?><!DOCTYPE svg PUBLIC "-//W3C//DTD SVG 1.1//EN" "http://www.w3.org/Graphics/SVG/1.1/DTD/svg11.dtd"><svg t="1729213186636" class="icon" viewBox="0 0 1024 1024" version="1.1" xmlns="http://www.w3.org/2000/svg" p-id="1883" xmlns:xlink="http://www.w3.org/1999/xlink" width="200" height="200"><path d="M658.9 492.9h128v-256h-128l-128 128v128z" fill="#6EC363" p-id="1884"></path><path d="M426.7 512m-128 0a128 128 0 1 0 256 0 128 128 0 1 0-256 0Z" fill="#7298E3" p-id="1885"></path><path d="M688 239.3c8.7-10.4 17.5-18.8 26.4-25 65.1-45.6 150.8-35.7 191.4 22.3 40.5 57.9 20.6 141.8-44.5 187.4-18.6 13-45.6 22.4-81.1 28.3" fill="#6EC363" p-id="1886"></path><path d="M780 473.7c-10.2 0-19.3-7.4-21-17.9-1.9-11.6 5.9-22.6 17.6-24.5 32.2-5.3 56.6-13.7 72.4-24.7 55.4-38.8 73-109.6 39.3-157.7-33.7-48.2-106.3-55.8-161.7-17-7.3 5.1-14.8 12.2-22.2 21.2-7.5 9.1-21 10.3-30 2.8-9.1-7.5-10.3-21-2.8-30 9.9-11.9 20.1-21.6 30.5-28.8 35.8-25.1 78.3-36.2 119.6-31.4 42.3 4.9 78.3 25.8 101.5 58.9 23.2 33.1 30.5 74.1 20.6 115.5-9.6 40.5-34.6 76.6-70.4 101.7-21.4 15-50.8 25.4-89.9 31.9-1.1-0.1-2.3 0-3.5 0z" fill="#333333" p-id="1887"></path><path d="M468.6 184.6c14.9-26.9 39.2-47.1 69.7-54.1 61.2-14.1 123.8 30.2 139.7 99.1 9.4 40.5-5.8 105.8-45.6 195.9" fill="#6EC363" p-id="1888"></path><path d="M632.3 446.9c-2.9 0-5.8-0.6-8.6-1.8-10.8-4.8-15.7-17.3-10.9-28.1 25.9-58.7 54.6-138 44.3-182.5-13.2-57.3-64.4-94.6-114.1-83.1-23.4 5.4-43.2 20.9-55.8 43.6-5.7 10.3-18.7 14.1-29 8.4-10.3-5.7-14.1-18.7-8.4-29 18.5-33.5 48.2-56.4 83.5-64.5C605.9 93.1 680 144.8 698.5 225c10.5 45.5-4.8 114-46.9 209.3-3.3 7.8-11.1 12.6-19.3 12.6z" fill="#333333" p-id="1889"></path><path d="M572.2 449.7c6.3-20.2 9.7-41.6 9.7-63.8 0-85.2-50-158.8-122.2-192.9-27.6-13.1-58.5-20.4-91.1-20.4-117.8 0-213.3 95.5-213.3 213.3 0 58.5 23.6 111.5 61.7 150.1" fill="#7298E3" p-id="1890"></path><path d="M216.9 557.3c-5.5 0-11-2.1-15.2-6.3-43.8-44.2-67.9-102.8-67.9-165.1 0-62.7 24.4-121.6 68.7-165.9 44.3-44.3 103.3-68.7 165.9-68.7 35.1 0 68.8 7.6 100.3 22.4 39.6 18.7 73.1 48.2 97 85 24.5 37.9 37.4 81.9 37.4 127.2 0 23.9-3.6 47.6-10.7 70.2-3.5 11.2-15.5 17.5-26.7 14s-17.5-15.5-14-26.7c5.8-18.5 8.7-37.8 8.7-57.5 0-37.1-10.6-73-30.6-104-19.5-30.2-47-54.3-79.4-69.6-25.7-12.2-53.3-18.3-82-18.3-105.9 0-192 86.1-192 192 0 50.9 19.7 98.9 55.5 135.1 8.3 8.4 8.2 21.9-0.2 30.2-3.9 3.9-9.3 6-14.8 6z" fill="#333333" p-id="1891"></path><path d="M534.3 808.7c36.5 29.1 82.7 46.5 133 46.5 117.8 0 213.3-95.5 213.3-213.3s-95.5-213.3-213.3-213.3c-88.4 0-164.2 53.7-196.6 130.3" fill="#7298E3" p-id="1892"></path><path d="M667.2 876.6c-53 0-104.9-18.2-146.3-51.2-9.2-7.3-10.7-20.8-3.4-30 7.3-9.2 20.8-10.7 30-3.4 34.3 27.4 75.7 41.8 119.7 41.8 105.9 0 192-86.1 192-192s-86.1-192-192-192c-77.3 0-146.8 46-176.9 117.3-4.6 10.9-17.1 15.9-28 11.3-10.9-4.6-15.9-17.1-11.3-28 36.8-87.1 121.7-143.3 216.2-143.3 62.7 0 121.6 24.4 165.9 68.7 44.3 44.3 68.7 103.3 68.7 165.9s-24.4 121.6-68.7 165.9c-44.3 44.6-103.2 69-165.9 69z" fill="#333333" p-id="1893"></path><path d="M325.9 727.2m-213.3 0a213.3 213.3 0 1 0 426.6 0 213.3 213.3 0 1 0-426.6 0Z" fill="#7298E3" p-id="1894"></path><path d="M325.9 961.9c-62.7 0-121.6-24.4-165.9-68.7-44.3-44.3-68.7-103.3-68.7-165.9s24.4-121.6 68.7-165.9 103.3-68.7 165.9-68.7 121.6 24.4 165.9 68.7 68.7 103.3 68.7 165.9-24.4 121.6-68.7 165.9c-44.3 44.3-103.2 68.7-165.9 68.7z m0-426.7c-105.9 0-192 86.1-192 192s86.1 192 192 192 192-86.1 192-192-86.1-192-192-192z" fill="#333333" p-id="1895"></path><path d="M389.60041 862.715711a21.299361 21.299361 0 1 0 2.229445-42.540342 21.299361 21.299361 0 1 0-2.229445 42.540342Z" fill="#333333" p-id="1896"></path><path d="M437.5 818.2c-6.3 0-12.6-2.8-16.8-8.2-7.3-9.3-5.6-22.7 3.7-29.9 13.5-10.5 22-25.7 24.1-42.6 2.1-17-2.6-33.7-13.1-47.2-7.3-9.3-5.6-22.7 3.7-29.9 9.3-7.3 22.7-5.6 29.9 3.7 17.5 22.5 25.3 50.4 21.8 78.7-3.5 28.3-17.7 53.5-40.2 71.1-3.9 2.8-8.5 4.3-13.1 4.3zM670.1 443.7c-2.3 0-4.6-0.4-6.9-1.2-11.1-3.8-17.1-16-13.3-27.1 13.3-38.9 40.3-75.6 75.9-103.5 33.7-26.3 72.1-42.9 111-47.8 11.7-1.5 22.4 6.8 23.9 18.5s-6.8 22.4-18.5 23.9c-30.9 3.9-62.9 17.8-90.1 39.1-29.2 22.8-51.1 52.5-61.8 83.7-3 8.9-11.3 14.4-20.2 14.4zM583.7 390.7c-1.3 0-2.7-0.1-4.1-0.4-11.6-2.2-19.1-13.4-16.9-25 1.8-9.2 2.9-18.8 3.4-28.3 1.8-34.5-5.2-68.7-19.7-96.2-5.5-10.4-1.5-23.3 8.9-28.8s23.3-1.5 28.8 8.9c18.3 34.7 26.7 75.6 24.5 118.3-0.6 11.5-2 23-4.2 34.2-1.8 10.3-10.7 17.3-20.7 17.3z" fill="#333333" p-id="1897"></path></svg>