<?xml version="1.0" standalone="no"?><!DOCTYPE svg PUBLIC "-//W3C//DTD SVG 1.1//EN" "http://www.w3.org/Graphics/SVG/1.1/DTD/svg11.dtd"><svg t="1729213182128" class="icon" viewBox="0 0 1024 1024" version="1.1" xmlns="http://www.w3.org/2000/svg" p-id="1708" xmlns:xlink="http://www.w3.org/1999/xlink" width="200" height="200"><path d="M256 896c0 68.6 360.1-25.9 384-42.7 22.4-15.7-5.6-67.7 0-128 2.4-25.5 16.6-68.2 42.7-128L640 512C384 722.3 256 850.3 256 896z" fill="#FFD313" p-id="1709"></path><path d="M597.3 682.7c119.7 0 213.3-128 213.3-170.7 42.7 0 85.3-39.1 85.3-85.3 0-106-129.3-170.7-341.3-170.7s-384 86-384 192c0 30.7 54.7 33.2 85.3 64 75.4 75.7 190.7 170.7 341.4 170.7z" fill="#FFD313" p-id="1710"></path><path d="M372.5 941.2c-10.3 0-20.7-0.5-31-1.5-36.1-3.5-71-13-103.8-28.3-33.9-15.8-64.6-37.3-91.3-63.9-8.3-8.3-8.3-21.8 0-30.2 8.3-8.3 21.8-8.3 30.2 0 23.1 23.1 49.7 41.8 79.1 55.4 28.4 13.2 58.6 21.4 89.9 24.5 62.8 6.1 126.3-9.4 178.8-43.8 9.9-6.5 23.1-3.7 29.5 6.2 6.5 9.9 3.7 23.1-6.2 29.5-51.9 34-113.1 52.1-175.2 52.1z m273.7-178.4c-2.9 0-5.8-0.6-8.6-1.8-10.8-4.7-15.7-17.3-10.9-28.1 22.2-50.6 28.8-106.2 19-160.8-10-55.9-36.6-106.7-76.9-147-8.3-8.3-8.3-21.8 0-30.2 8.3-8.3 21.8-8.3 30.2 0 46.5 46.5 77.2 105.1 88.7 169.6 11.3 63 3.7 127.1-22 185.5-3.5 8-11.3 12.8-19.5 12.8z" fill="#333333" p-id="1711"></path><path d="M161.480941 832.416461a170.7 298.7 44.999 1 0 422.418218-422.432964 170.7 298.7 44.999 1 0-422.418218 422.432964Z" fill="#FFFAEC" p-id="1712"></path><path d="M249.1 885.8c-9.3 0-18.4-0.7-27.2-2-30.5-4.6-55.9-16.8-75.5-36.4-19.6-19.6-31.8-45-36.4-75.5-4.2-28-1.7-59 7.4-92.4 18.1-66.2 60.5-135.2 119.5-194.2S364.9 384 431.1 366c33.3-9.1 64.4-11.6 92.4-7.4 30.5 4.6 55.9 16.8 75.5 36.4s31.8 45 36.4 75.5c4.2 28 1.7 59-7.4 92.4C609.9 629 567.5 698 508.5 757s-128 101.4-194.2 119.5c-22.9 6.2-44.7 9.3-65.2 9.3z m18-370.2c-53.8 53.8-92.4 116.1-108.5 175.2-15 55-8.6 99.9 18 126.5s71.5 33 126.5 18c59.2-16.1 121.4-54.7 175.2-108.5 53.8-53.8 92.4-116.1 108.5-175.2 15-55 8.6-99.9-18-126.5s-71.5-33-126.5-18c-59.1 16.2-121.4 54.7-175.2 108.5z" fill="#333333" p-id="1713"></path><path d="M373.3 641.5h148.4c-16.2 23.8-35.8 47.6-58.5 70.2-28.9 28.9-59.7 52.9-90 71.1l0.1-141.3z m187.1-193.4c27 37.3 15.7 103.4-25.2 172.1H388.3l172.1-172.1zM351.9 656.6v138.2c-61.4 31.7-118.7 38.6-152.4 14.2l152.4-152.4z m-152.5-15.1h137.4L184.6 793.8c-24-33.9-16.9-91.1 14.8-152.3z m173.9-182.6c68.5-40.9 134.5-52.4 172-25.9l-172 172V458.9z m-91.1 71.8c22.5-22.5 46.1-42 69.7-58.1v147.6H211.4c17.6-29.1 40.4-58.6 67.8-86.5l3-3z" fill="#FFE8B6" p-id="1714"></path><path d="M251.3 832.2c-22.5 0-41.9-5.5-56.8-16.3l-8.1-5.9 174-174v164l-4.6 2.4c-31.5 16.3-62.5 26.3-89.6 29.1-5.1 0.4-10.1 0.7-14.9 0.7z m-38-24.9c30.1 14.8 77.4 8.4 130.1-17.8V677.2L213.3 807.3z m-29.9-0.3l-5.8-8.2c-25.4-35.9-20.2-94.6 14.2-161.1l2.4-4.6h163.2L183.4 807z m21.2-157c-26.2 52.4-32.7 99.7-18.3 129.9L316.2 650H204.6z m160.1 147.9V633h173.1l-9.1 13.3c-16.9 24.9-36.9 48.9-59.5 71.5-28.8 28.8-59.6 53.1-91.6 72.4l-12.9 7.7zM381.8 650v117.4c26.2-17.1 51.5-37.8 75.4-61.7 17.7-17.7 33.8-36.4 48-55.7H381.8z m-185.5-21.3l7.8-12.9c18.5-30.7 41.7-60.3 69-88l3-3.1c22.4-22.4 46.3-42.3 71-59.1l13.3-9.1v172.3l-164.1-0.1z m91.9-92l-3 3c-22.5 22.9-42.1 47-58.4 71.9h116.6V489.1c-19.1 14.1-37.6 30.1-55.2 47.6z m251.9 92H367.7L561.5 435l5.9 8.1c28.6 39.5 19.4 107.3-24.7 181.5l-2.6 4.1z m-131.2-17.1h121.4c34.7-60 45.1-115.8 28.4-149.8L408.9 611.6z m-44.2 14.1V454.1l4.2-2.5c73.8-44.1 141.6-53.6 181.3-25.5l8.2 5.8-193.7 193.8z m17.1-161.9v120.7l149.7-149.7c-34.2-16.3-90-5.7-149.7 29z" fill="#333333" p-id="1715"></path><path d="M826.9 343.9C786.1 244.2 675.3 172.7 545 172.7c-130.3 0-241.1 71.5-281.9 171.2m411.5 315.5c69.4-28.7 123.9-79.8 150.8-142.3l1.5-2.8" fill="#FFD313" p-id="1716"></path><path d="M674.6 680.8c-8.4 0-16.3-5-19.7-13.2-4.5-10.9 0.7-23.4 11.6-27.9 32.2-13.3 60.8-31.6 84.9-54.3 24-22.6 42.3-48.4 54.4-76.7l0.4-0.8 1.9-3.6c5.5-10.4 18.5-14.4 28.9-8.8 10.4 5.5 14.4 18.4 8.8 28.9l-1.1 2.1c-14.5 33.4-36 63.7-64 90.1-27.9 26.3-60.8 47.4-97.8 62.7-2.8 0.9-5.6 1.5-8.3 1.5z m152.3-315.5c-8.4 0-16.4-5-19.8-13.3-38.7-94.5-144-158-262.2-158-118.1 0-223.5 63.5-262.2 158-4.5 10.9-16.9 16.1-27.8 11.7-10.9-4.5-16.1-16.9-11.7-27.8 22-53.8 62.1-99.8 115.9-133.1 54.4-33.6 118.6-51.4 185.7-51.4s131.3 17.8 185.7 51.4c53.8 33.3 93.9 79.3 115.9 133.1 4.5 10.9-0.8 23.4-11.7 27.8-2.4 1.1-5.1 1.6-7.8 1.6z" fill="#333333" p-id="1717"></path><path d="M829.4 535.6c-11.8 0-21.3-9.6-21.3-21.3s9.6-21.3 21.3-21.3c35.3 0 64-28.7 64-64s-28.7-64-64-64c-11.8 0-21.3-9.6-21.3-21.3s9.6-21.3 21.3-21.3c58.8 0 106.7 47.9 106.7 106.7s-47.8 106.5-106.7 106.5zM578 901.8c-15.4 0-30.9-3.3-45.4-10.2-10.6-5-15.2-17.8-10.2-28.4 5-10.6 17.8-15.2 28.4-10.2 25.8 12.2 56.9 5.7 75.7-15.9 19-21.9 21-53.9 4.7-77.9-6.6-9.8-4.1-23 5.7-29.6s23-4.1 29.6 5.7c27.1 40 23.9 93.3-7.8 129.8-20.7 23.9-50.5 36.7-80.7 36.7zM225.1 527.7c-3 0-6.1-0.6-9-2-37.3-17.5-61.4-55.4-61.4-96.6 0-58.8 47.9-106.7 106.7-106.7 11.8 0 21.3 9.6 21.3 21.3s-9.6 21.3-21.3 21.3c-35.3 0-64 28.7-64 64 0 24.7 14.5 47.5 36.9 58 10.7 5 15.3 17.7 10.3 28.4-3.8 7.8-11.5 12.3-19.5 12.3z" fill="#333333" p-id="1718"></path><path d="M843.6 449.2l-13.5 9.9c-1.9 1.4-4.6 1-6-0.9-0.6-0.9-0.9-1.9-0.8-3l1.8-16.7-15.3-6.8c-2.2-1-3.1-3.5-2.2-5.6 0.4-1 1.2-1.8 2.2-2.2l15.3-6.8-1.8-16.7c-0.3-2.3 1.4-4.4 3.8-4.7 1.1-0.1 2.1 0.2 3 0.8l13.5 9.9 13.5-9.9c1.9-1.4 4.6-1 6 0.9 0.6 0.9 0.9 1.9 0.8 3l-1.8 16.7 15.3 6.8c2.2 1 3.1 3.5 2.2 5.6-0.4 1-1.2 1.8-2.2 2.2l-15.3 6.8 1.8 16.7c0.3 2.3-1.4 4.4-3.8 4.7-1.1 0.1-2.1-0.2-3-0.8l-13.5-9.9z" fill="#333333" p-id="1719"></path><path d="M673.3 261.7m-12.8 0a12.8 12.8 0 1 0 25.6 0 12.8 12.8 0 1 0-25.6 0Z" fill="#333333" p-id="1720"></path><path d="M709.6 284.4m-12.8 0a12.8 12.8 0 1 0 25.6 0 12.8 12.8 0 1 0-25.6 0Z" fill="#333333" p-id="1721"></path></svg>