<?xml version="1.0" standalone="no"?><!DOCTYPE svg PUBLIC "-//W3C//DTD SVG 1.1//EN" "http://www.w3.org/Graphics/SVG/1.1/DTD/svg11.dtd"><svg t="1729213198900" class="icon" viewBox="0 0 1024 1024" version="1.1" xmlns="http://www.w3.org/2000/svg" p-id="2389" xmlns:xlink="http://www.w3.org/1999/xlink" width="200" height="200"><path d="M677.4 662.7c138.1-33.8 234.7-118.3 230-252.1-6-171.1-171.2-250.2-371.4-243.2S176.9 277.2 182.5 435.9c1.4 40.1 13 75.9 32.8 106.9" fill="#C58608" p-id="2390"></path><path d="M682.4 683.4L672.3 642c67-16.4 121.7-45 158.3-82.7 38.8-40 57.5-89.8 55.4-148-1.3-37.7-11.1-71.5-29.2-100.6-17.1-27.6-41.8-51.3-73.3-70.2-30.9-18.6-68-32.4-110.2-41.2-41.8-8.7-87.8-12.3-136.5-10.6-95.5 3.3-181.5 29.4-242.1 73.3-43.1 31.2-93.8 86.6-90.8 173.1 1.2 35.1 11.1 67.4 29.5 96.1l-36 23c-22.5-35.2-34.7-74.8-36.2-117.6-1.5-42.4 7.7-82.3 27.3-118.7 18.5-34.3 45.8-64.8 81.1-90.4 67.4-48.9 161.8-77.8 265.7-81.4 107.5-3.8 201 16.3 270.2 57.9 77.5 46.6 120.1 117.8 123.2 205.9 1.2 35.5-4.1 69-16 99.6-11.3 29.3-28.7 56.1-51.5 79.6-42.1 43.4-104 76-178.8 94.3z" fill="#333333" p-id="2391"></path><path d="M161.5 832.4c116.6 116.6 305.7 116.6 422.4 0s116.6-305.7 0-422.4" fill="#C58608" p-id="2392"></path><path d="M372.7 941.2c-85.5 0-165.8-33.3-226.3-93.7l30.2-30.2c52.4 52.4 122 81.2 196.1 81.2s143.7-28.8 196.1-81.2c52.4-52.4 81.2-122 81.2-196.1s-28.8-143.7-81.2-196.1l30.2-30.2c60.4 60.4 93.7 140.8 93.7 226.3S659.4 787 599 847.5c-60.5 60.4-140.8 93.7-226.3 93.7z" fill="#333333" p-id="2393"></path><path d="M161.480941 832.416461a170.7 298.7 44.999 1 0 422.418218-422.432964 170.7 298.7 44.999 1 0-422.418218 422.432964Z" fill="#B7C944" p-id="2394"></path><path d="M249.1 885.8c-9.3 0-18.4-0.7-27.2-2-30.5-4.6-55.9-16.8-75.5-36.4-19.6-19.6-31.8-45-36.4-75.5-4.2-28-1.7-59 7.4-92.4 18.1-66.2 60.5-135.2 119.5-194.2S364.9 384 431.1 366c33.3-9.1 64.4-11.6 92.4-7.4 30.5 4.6 55.9 16.8 75.5 36.4s31.8 45 36.4 75.5c4.2 28 1.7 59-7.4 92.4C609.9 629 567.5 698 508.5 757s-128 101.4-194.2 119.5c-22.9 6.2-44.7 9.3-65.2 9.3z m18-370.2c-53.8 53.8-92.4 116.1-108.5 175.2-15 55-8.6 99.9 18 126.5s71.5 33 126.5 18c59.2-16.1 121.4-54.7 175.2-108.5 53.8-53.8 92.4-116.1 108.5-175.2 15-55 8.6-99.9-18-126.5s-71.5-33-126.5-18c-59.1 16.2-121.4 54.7-175.2 108.5z" fill="#333333" p-id="2395"></path><path d="M818.9 432.1l-13.9-7.6c-4.1-2.3-5.7-7.4-3.4-11.6 0.8-1.4 2-2.6 3.4-3.4l13.9-7.6 7.6-13.9c2.3-4.1 7.4-5.7 11.6-3.4 1.4 0.8 2.6 2 3.4 3.4l7.6 13.9 13.9 7.6c4.1 2.3 5.7 7.4 3.4 11.6-0.8 1.4-2 2.6-3.4 3.4l-13.9 7.6-7.6 13.9c-2.3 4.1-7.4 5.7-11.6 3.4-1.4-0.8-2.6-2-3.4-3.4l-7.6-13.9zM465.9 519c4.1 4.4 4 11.2-0.2 15.4l-47.4 48.3c-3.4 3.5-9 3.5-12.5 0.1-0.3-0.3-0.5-0.6-0.8-0.9-3.6-4.6-3.3-11.1 0.7-15.3l45.5-47.8c3.8-4 10.2-4.2 14.2-0.3l0.5 0.5zM464.4 591.9c-0.1 5.7-4 10.6-9.5 12l-15.2 3.9c-3.9 1-7.9-1.3-8.9-5.3-0.2-0.6-0.2-1.3-0.2-2 0.1-5.7 4-10.6 9.5-12l15.2-3.9c3.9-1 7.9 1.3 8.9 5.3 0.1 0.7 0.2 1.3 0.2 2zM441 656.3c-3.4 5.2-10.3 6.8-15.7 3.7L395 642.3c-5-3-6.7-9.4-3.8-14.5 0.1-0.2 0.2-0.3 0.3-0.5 3.4-5.2 10.3-6.8 15.7-3.7l30.2 17.7c5 3 6.7 9.4 3.8 14.5 0 0.2-0.1 0.3-0.2 0.5zM394.3 698.2c-4.5 2.5-10.2 0.9-12.8-3.6-0.3-0.5-0.5-0.9-0.7-1.4l-2.4-6.8c-2.2-6.1 0.4-12.8 6-15.9 4.5-2.5 10.2-0.9 12.8 3.6 0.3 0.5 0.5 0.9 0.7 1.4l2.4 6.8c2.2 6-0.4 12.7-6 15.9zM340.7 713c-4.3-0.2-7.7-3.9-7.4-8.2 0-0.5 0.1-1 0.2-1.6l10-39.2c1.4-5.4 6.4-9.1 12-8.8 4.3 0.2 7.7 3.9 7.4 8.2 0 0.5-0.1 1-0.2 1.6l-10 39.2c-1.4 5.4-6.4 9.1-12 8.8zM288.9 699.2c-3.2-3.4-3-8.8 0.4-12.1l15.3-14.2c3.4-3.2 8.8-3 12.1 0.4 3.2 3.4 3 8.8-0.4 12.1L301 699.6c-3.4 3.3-8.8 3.1-12.1-0.4zM269.3 650.1c0.1-5.7 4-10.5 9.5-11.8l41.1-9.6c4-0.9 8 1.6 9 5.6 0.1 0.6 0.2 1.2 0.2 1.8-0.1 5.7-4 10.5-9.5 11.8l-41.1 9.6c-4 0.9-8-1.6-9-5.6-0.1-0.6-0.2-1.2-0.2-1.8zM285.1 580.7c4.9-4.3 12.1-4.8 17.5-1l25.3 17.7c4 2.8 5 8.3 2.2 12.2-0.4 0.6-0.9 1.1-1.4 1.5-4.9 4.3-12.1 4.8-17.5 1l-25.3-17.7c-4-2.8-5-8.3-2.2-12.2 0.4-0.5 0.9-1.1 1.4-1.5zM244.9 609.2c2.2-6 8.5-9.6 14.8-8.4l7.1 1.3c5.1 1 8.5 5.9 7.5 11-0.1 0.5-0.2 1-0.4 1.5-2.2 6-8.5 9.6-14.8 8.4l-7.1-1.3c-5.1-1-8.5-5.9-7.5-11 0.1-0.5 0.2-1 0.4-1.5zM330.6 533.7c3.9-2.3 8.9-0.9 11.1 3 0.4 0.7 0.7 1.5 0.9 2.3l3.1 14.1c1.4 6.5-1.5 13.1-7.3 16.5-3.9 2.3-8.9 0.9-11.1-3-0.4-0.7-0.7-1.5-0.9-2.3l-3.1-14.1c-1.4-6.5 1.5-13.2 7.3-16.5zM388.5 517.4c4-0.1 7.4 3.1 7.4 7.2 0 0.7-0.1 1.3-0.2 2l-9.2 35.8c-1.4 5.5-6.3 9.4-12 9.5-4 0.1-7.4-3.1-7.4-7.2 0-0.7 0.1-1.3 0.2-2l9.2-35.8c1.4-5.5 6.3-9.4 12-9.5z" fill="#333333" p-id="2396"></path><path d="M343.6 670.4c-9.2 0-17.4-3-23.7-8.8-9.9-9.2-13-23.7-8.6-39.9 3.3-12.2 10.8-25 21.1-36s22.5-19.4 34.5-23.5c15.8-5.5 30.5-3.4 40.4 5.8 9.9 9.2 13 23.7 8.6 39.9-3.3 12.2-10.8 25-21.1 36s-22.5 19.4-34.5 23.5c-5.8 2-11.4 3-16.7 3z m35.9-72.8c-4.6 1.6-11.9 5.5-19.6 13.7-7.7 8.2-11.1 15.8-12.3 20.5 4.6-1.6 11.9-5.5 19.6-13.7 7.6-8.2 11-15.8 12.3-20.5z" fill="#333333" p-id="2397"></path><path d="M794.9 292.2m-12.8 0a12.8 12.8 0 1 0 25.6 0 12.8 12.8 0 1 0-25.6 0Z" fill="#333333" p-id="2398"></path><path d="M759.8 264.9m-12.8 0a12.8 12.8 0 1 0 25.6 0 12.8 12.8 0 1 0-25.6 0Z" fill="#333333" p-id="2399"></path></svg>