<?xml version="1.0" standalone="no"?><!DOCTYPE svg PUBLIC "-//W3C//DTD SVG 1.1//EN" "http://www.w3.org/Graphics/SVG/1.1/DTD/svg11.dtd"><svg t="1729213178282" class="icon" viewBox="0 0 1024 1024" version="1.1" xmlns="http://www.w3.org/2000/svg" p-id="1540" xmlns:xlink="http://www.w3.org/1999/xlink" width="200" height="200"><path d="M512 938.7c235.6 0 384-195.5 384-384s-170.7-384-384-256c-256-128-384 67.5-384 256s148.4 384 384 384z" fill="#E34A49" p-id="1541"></path><path d="M128 533.3c-11.8 0-21.3-9.6-21.3-21.3 0-74.1 28.8-143.7 81.2-196.1 52.4-52.4 122-81.2 196.1-81.2 16.4 0 32.8 1.4 48.8 4.3 31.9 5.7 62.4 16.8 90.4 33.1 10.2 5.9 13.6 19 7.7 29.2-5.9 10.2-19 13.6-29.2 7.7-23.7-13.8-49.5-23.2-76.4-28-13.5-2.4-27.4-3.6-41.3-3.6-62.7 0-121.6 24.4-165.9 68.7-44.3 44.3-68.7 103.3-68.7 165.9-0.1 11.8-9.6 21.3-21.4 21.3z" fill="#333333" p-id="1542"></path><path d="M896 533.3c-11.8 0-21.3-9.6-21.3-21.3 0-62.7-24.4-121.6-68.7-165.9-44.3-44.3-103.3-68.7-165.9-68.7-41 0-81.3 10.7-116.7 31-10.2 5.9-23.3 2.3-29.1-7.9-5.9-10.2-2.3-23.3 7.9-29.1 41.8-24 89.5-36.7 137.9-36.7 74.1 0 143.7 28.8 196.1 81.2 52.4 52.4 81.2 122 81.2 196.1-0.1 11.8-9.6 21.3-21.4 21.3zM426.7 960c-49.1 0-95.8-18.5-131.5-52.1-8.6-8.1-9-21.6-0.9-30.2 8.1-8.6 21.6-9 30.2-0.9 27.8 26.1 64.1 40.5 102.3 40.5 26.3 0 52.2-6.9 74.9-20.1 10.2-5.9 23.2-2.5 29.2 7.7 5.9 10.2 2.5 23.2-7.7 29.2-29.4 17-62.7 25.9-96.5 25.9z" fill="#333333" p-id="1543"></path><path d="M597.3 960c-33.3 0-66.1-8.7-94.9-25.1-10.2-5.8-13.8-18.9-8-29.1 5.8-10.2 18.9-13.8 29.1-8 22.4 12.7 47.9 19.5 73.8 19.5 16 0 31.8-2.5 46.9-7.5 17.2-5.7 33.2-14.4 47.3-26 9.1-7.4 22.6-6.1 30 3.1 7.4 9.1 6.1 22.6-3.1 30-18.2 14.8-38.7 26.1-60.9 33.4-19.3 6.5-39.6 9.7-60.2 9.7zM314.7 924c-68.4-57-120.6-120.5-155.2-188.8-34.8-68.6-52.5-143.7-52.9-223.1l42.7-0.2c0.3 72.8 16.5 141.4 48.3 204 31.9 63 80.5 122 144.4 175.3L314.7 924z" fill="#333333" p-id="1544"></path><path d="M703.8 927.5l-26.7-33.2c64.8-52.1 114.2-111 146.9-175.1 32.6-63.8 49.6-134.8 50.7-211.1l42.7 0.6c-1.1 82.8-19.7 160.2-55.3 229.9-35.6 69.5-88.8 133-158.3 188.9zM512 306.8c-10.7 0-19.9-8-21.2-18.8-4.1-34.5-3.8-65.2 0.9-91.3 4.9-27.6 14.9-50.9 29.6-69.4 23-28.9 57.3-46.1 102.1-51 11.7-1.3 22.2 7.2 23.5 18.9 1.3 11.7-7.2 22.2-18.9 23.5-33.5 3.7-57.5 15.2-73.3 35.1-21.3 26.8-28.5 70.2-21.5 129.1 1.4 11.7-7 22.3-18.7 23.7-0.8 0.1-1.7 0.2-2.5 0.2z" fill="#333333" p-id="1545"></path><path d="M318.1 105.7C323.7 96 335.3 92 348 91.2c17.2-1.1 37.2 4 56.1 14.9 23.9 13.8 50.3 46.1 80.2 95.6-57.9-1.2-99-7.9-122.9-21.7-18.9-10.9-33.3-25.7-41-41.2-5.6-11.4-7.9-23.4-2.3-33.1z" fill="#6EC363" p-id="1546"></path><path d="M522.6 223.8l-38.7-0.8c-64.1-1.3-106.3-9.1-133.1-24.5-22.2-12.8-39.8-30.6-49.4-50.2-12.4-25-7.8-42.8-1.7-53.3 6-10.5 19.1-23.3 47-25.1 21.8-1.4 46 4.9 68.2 17.7 26.8 15.5 54.7 48.2 87.8 103l19.9 33.2zM352.7 112.4c-1.1 0-2.2 0-3.3 0.1-8 0.5-12 2.6-12.8 3.9-0.7 1.3-0.5 5.8 3 13 5.9 11.9 17.7 23.6 32.5 32.1 14.4 8.3 38.4 13.9 71.7 16.8-19.1-27.4-36-45.4-50.4-53.7-13.5-7.9-28.2-12.2-40.7-12.2zM368.3 835c-3.9 0-7.9-1.1-11.4-3.3-71.3-45.4-120.2-119-134.3-201.9-2-11.6 5.8-22.6 17.5-24.6 11.6-2 22.6 5.8 24.6 17.5 12.1 71.1 54 134.2 115.1 173.1 9.9 6.3 12.9 19.5 6.5 29.5-4 6.2-10.9 9.7-18 9.7z" fill="#333333" p-id="1547"></path><path d="M423.6 850.2m-21.3 0a21.3 21.3 0 1 0 42.6 0 21.3 21.3 0 1 0-42.6 0Z" fill="#333333" p-id="1548"></path></svg>