<?xml version="1.0" standalone="no"?><!DOCTYPE svg PUBLIC "-//W3C//DTD SVG 1.1//EN" "http://www.w3.org/Graphics/SVG/1.1/DTD/svg11.dtd"><svg t="1729213174527" class="icon" viewBox="0 0 1024 1024" version="1.1" xmlns="http://www.w3.org/2000/svg" p-id="1354" xmlns:xlink="http://www.w3.org/1999/xlink" width="200" height="200"><path d="M275.9 556.7a320 341.3 0 1 0 640 0 320 341.3 0 1 0-640 0Z" fill="#813F79" p-id="1355"></path><path d="M358.8 688.8m-277.3 0a277.3 277.3 0 1 0 554.6 0 277.3 277.3 0 1 0-554.6 0Z" fill="#DFA888" p-id="1356"></path><path d="M382.1 289.7c-27.7 22.6-51.9 49.4-71.4 79.5-2.5 3.9-4.9 7.8-7.3 11.8-17.6 27.8-26.5 43.7-26.5 47.9m283 460.1c0 6.2 12.5 8.5 37.4 7 188.5 0 341.3-152.8 341.3-341.3 0-107-49.2-202.5-126.3-265.1" fill="#813F79" p-id="1357"></path><path d="M584.1 917.8c-19 0-29.9-3.1-37.3-10-5.3-5-8.2-11.6-8.2-18.7 0-11.8 9.6-21.3 21.3-21.3 6.3 0 12 2.7 15.9 7.1 3.4 0.3 9.6 0.6 20.2-0.1h1.3c85.5 0 165.8-33.3 226.3-93.7 60.4-60.4 93.7-140.8 93.7-226.3 0-96.8-43.2-187.4-118.4-248.5-9.1-7.4-10.5-20.9-3.1-30 7.4-9.1 20.9-10.5 30-3.1C911.1 342.3 960 444.9 960 554.7c0 49-9.6 96.4-28.5 141.2-18.3 43.2-44.4 82-77.7 115.3s-72.1 59.4-115.3 77.7c-44.5 18.8-91.8 28.4-140.5 28.5-5.1 0.2-9.7 0.4-13.9 0.4z m-2.8-28.8zM277 450.2c-11.8 0-21.3-9.6-21.3-21.3 0-7.7 2-15.6 29.6-59.1 2.4-4.1 5-8.2 7.6-12.2 20.7-31.9 46.2-60.3 75.8-84.4 9.1-7.4 22.6-6 30 3.1 7.4 9.1 6 22.6-3.1 30-26.1 21.2-48.6 46.3-66.9 74.5-2.3 3.6-4.6 7.3-6.8 11l-0.3 0.6c-17.9 28.2-22.4 37.4-23.4 40-1.9 10.1-10.6 17.8-21.2 17.8z m20.8-17.1z m0.5-4.3z" fill="#333333" p-id="1358"></path><path d="M367.2 990.8c-80.3 0-155.7-31.3-212.4-88-56.7-56.7-88-132.2-88-212.4S98 534.7 154.8 478s132.2-88 212.4-88c80.3 0 155.7 31.3 212.4 88 56.7 56.7 88 132.2 88 212.4s-31.3 155.7-88 212.4c-56.7 56.8-132.1 88-212.4 88z m0-554.6c-67.9 0-131.7 26.4-179.8 74.5-48 48-74.5 111.9-74.5 179.8s26.4 131.7 74.5 179.8c48 48 111.9 74.5 179.8 74.5S499 918.2 547 870.2c48-48 74.5-111.9 74.5-179.8S595 558.7 547 510.6c-48-48-111.9-74.4-179.8-74.4z" fill="#333333" p-id="1359"></path><path d="M545.7 218c-14-28-42.9-47.3-76.4-47.3-47.1 0-85.3 38.2-85.3 85.3s38.2 85.3 85.3 85.3c13 0 25.3-2.9 36.3-8.1" fill="#B8DA4E" p-id="1360"></path><path d="M469.3 362.7c-58.8 0-106.7-47.9-106.7-106.7 0-58.8 47.9-106.7 106.7-106.7 40.7 0 77.3 22.7 95.5 59.1l-38.2 19c-10.9-21.9-32.9-35.5-57.3-35.5-35.3 0-64 28.7-64 64s28.7 64 64 64c9.5 0 18.7-2 27.2-6l18.2 38.6c-14.3 6.8-29.5 10.2-45.4 10.2z" fill="#333333" p-id="1361"></path><path d="M687.1 332.3c11.5 5.8 24.5 9 38.2 9 47.1 0 85.3-38.2 85.3-85.3s-38.2-85.3-85.3-85.3c-33.3 0-62.2 19.1-76.2 47" fill="#B8DA4E" p-id="1362"></path><path d="M725.3 362.7c-16.8 0-32.9-3.8-47.8-11.3l19.1-38.1c8.9 4.5 18.6 6.7 28.6 6.7 35.3 0 64-28.7 64-64s-28.7-64-64-64c-24.3 0-46.2 13.5-57.2 35.2L630 208c18.3-36.2 54.8-58.7 95.3-58.7 58.8 0 106.7 47.9 106.7 106.7 0 58.8-47.9 106.7-106.7 106.7z" fill="#333333" p-id="1363"></path><path d="M597.3 298.7m-85.3 0a85.3 85.3 0 1 0 170.6 0 85.3 85.3 0 1 0-170.6 0Z" fill="#B8DA4E" p-id="1364"></path><path d="M597.3 405.3c-58.8 0-106.7-47.9-106.7-106.7S538.5 192 597.3 192 704 239.9 704 298.7s-47.9 106.6-106.7 106.6z m0-170.6c-35.3 0-64 28.7-64 64s28.7 64 64 64 64-28.7 64-64-28.7-64-64-64z" fill="#333333" p-id="1365"></path><path d="M597.3 221.5c-11.8 0-21.3-9.6-21.3-21.3 0-39.5 10.1-71.2 29.9-94.3 20-23.2 49.6-37.3 87.9-41.7 11.7-1.4 22.3 7 23.7 18.7 1.4 11.7-7 22.3-18.7 23.7-27.7 3.2-47.5 12.1-60.5 27.2s-19.5 37.4-19.5 66.4c-0.1 11.7-9.7 21.3-21.5 21.3z" fill="#333333" p-id="1366"></path><path d="M368.3 475.9c17.7 0 33.7 7.2 45.3 18.7 11.6 11.6 18.7 27.6 18.7 45.3 0 26-22.4 70-64 132.7-41.6-62.6-64-106.7-64-132.7 0-17.7 7.2-33.7 18.7-45.3 11.6-11.5 27.6-18.7 45.3-18.7z" fill="#FAFAED" p-id="1367"></path><path d="M368.3 711.1l-17.8-26.7C303.2 613.1 283 569.9 283 539.9c0-22.8 8.9-44.2 25-60.3 16.1-16.1 37.5-25 60.3-25 22.8 0 44.2 8.9 60.3 25 16.1 16.1 25 37.5 25 60.3 0 30-20.2 73.2-67.6 144.5l-17.7 26.7z m0-213.8c-11.4 0-22.1 4.4-30.2 12.5-8.1 8.1-12.5 18.8-12.5 30.2 0 16.7 14.3 48 42.7 93.3C396.6 588 411 556.6 411 540c0-11.4-4.4-22.1-12.5-30.2-8.1-8.1-18.8-12.5-30.2-12.5z" fill="#333333" p-id="1368"></path><path d="M544 581.4c8.8 15.3 10.6 32.7 6.4 48.6-4.2 15.8-14.5 30-29.8 38.9-22.5 13-71.8 15.6-146.9 10.9 33.4-67.4 60.4-108.8 82.9-121.7 15.3-8.8 32.7-10.6 48.6-6.4 15.8 4.2 30 14.4 38.8 29.7z" fill="#FAFAED" p-id="1369"></path><path d="M435.2 703.3c-18.3 0-39.1-0.8-62.8-2.3l-32-2 14.3-28.8c38-76.6 65.3-115.7 91.3-130.7 19.7-11.4 42.7-14.4 64.8-8.5 22 5.9 40.4 20 51.8 39.8 11.4 19.7 14.4 42.7 8.5 64.8-5.9 22-20 40.4-39.8 51.8-18.8 10.8-48.7 15.9-96.1 15.9z m-27.4-43.2c53.4 1.9 87.7-1.4 102.2-9.7 9.9-5.7 16.9-14.9 19.9-25.9 2.9-11 1.4-22.5-4.3-32.4-5.7-9.9-14.9-16.9-25.9-19.9-11-2.9-22.5-1.4-32.4 4.3-14.4 8.3-34.4 36.4-59.5 83.6z" fill="#333333" p-id="1370"></path><path d="M542.5 798.9c-8.8 15.3-23 25.6-38.9 29.8-15.8 4.2-33.3 2.4-48.6-6.4-22.5-13-49.5-54.4-82.9-121.8 75-4.7 124.4-2.1 146.9 10.9 15.3 8.8 25.6 23 29.8 38.9s2.5 33.3-6.3 48.6z" fill="#FAFAED" p-id="1371"></path><path d="M486.9 852.2c-14.8 0-29.4-3.9-42.5-11.5-26-15-53.3-54.1-91.3-130.8l-14.3-28.8 32-2c85.4-5.4 132.9-1.3 158.9 13.7 19.7 11.4 33.9 29.8 39.8 51.8 5.9 22 2.9 45-8.5 64.8-11.4 19.7-29.8 33.9-51.8 39.8-7.4 2.1-14.9 3-22.3 3z m-80.7-132c25.1 47.2 45.1 75.3 59.5 83.6 9.9 5.7 21.4 7.2 32.4 4.3 11-3 20.2-10 25.9-19.9 5.7-9.9 7.2-21.4 4.3-32.4-2.9-11-10-20.2-19.9-25.9-14.5-8.3-48.8-11.6-102.2-9.7z" fill="#333333" p-id="1372"></path><path d="M368.3 902.6c-17.7 0-33.7-7.2-45.3-18.7s-18.7-27.6-18.7-45.3c0-26 22.4-70 64-132.7 41.6 62.6 64 106.7 64 132.7 0 17.7-7.2 33.7-18.7 45.3s-27.6 18.7-45.3 18.7z" fill="#FAFAED" p-id="1373"></path><path d="M368.3 923.9c-22.8 0-44.2-8.9-60.3-25-16.1-16.1-25-37.5-25-60.3 0-30 20.2-73.2 67.6-144.5l17.8-26.7 17.8 26.7c47.4 71.3 67.6 114.5 67.6 144.5 0 22.8-8.9 44.2-25 60.3-16.3 16.1-37.7 25-60.5 25z m0-178.7c-28.3 45.3-42.7 76.7-42.7 93.3 0 11.4 4.4 22.1 12.5 30.2s18.8 12.5 30.2 12.5 22.1-4.4 30.2-12.5c8.1-8.1 12.5-18.8 12.5-30.2 0-16.6-14.4-47.9-42.7-93.3z" fill="#333333" p-id="1374"></path><path d="M180.3 581.1c8.8-15.3 23-25.6 38.9-29.8 15.8-4.2 33.3-2.4 48.6 6.4 22.5 13 49.5 54.4 82.9 121.8-75 4.7-124.4 2.1-146.9-10.9-15.3-8.8-25.6-23-29.8-38.9s-2.5-33.3 6.3-48.6z" fill="#FAFAED" p-id="1375"></path><path d="M289.2 703c-47.4 0-77.4-5.1-96.1-16-19.7-11.4-33.9-29.8-39.8-51.8-5.9-22-2.9-45 8.5-64.8 11.4-19.7 29.8-33.9 51.8-39.8 22-5.9 45-2.9 64.8 8.5 26 15 53.3 54.1 91.3 130.8l14.3 28.8-32 2c-23.8 1.5-44.6 2.3-62.8 2.3z m-90.4-111.2c-5.7 9.9-7.2 21.4-4.3 32.4s10 20.2 19.9 25.9c14.4 8.3 48.7 11.6 102.2 9.7-25.1-47.2-45.1-75.3-59.5-83.6-9.9-5.7-21.4-7.2-32.4-4.3-11 2.9-20.2 10-25.9 19.9z" fill="#333333" p-id="1376"></path><path d="M186.5 804.4c-8.8-15.3-10.6-32.7-6.4-48.6 4.2-15.8 14.5-30 29.8-38.9 22.5-13 71.8-15.6 146.9-10.9-33.4 67.4-60.4 108.8-82.9 121.7-15.3 8.8-32.7 10.6-48.6 6.4s-29.9-14.4-38.8-29.7z" fill="#FAFAED" p-id="1377"></path><path d="M242.1 857.8c-7.4 0-14.9-1-22.2-2.9-22-5.9-40.4-20-51.8-39.8-11.4-19.7-14.4-42.7-8.5-64.8 5.9-22 20-40.4 39.8-51.8 26-15 73.5-19.1 158.9-13.7l32 2-14.3 28.8c-38 76.6-65.3 115.7-91.3 130.7-13.2 7.6-27.8 11.5-42.6 11.5z m53.3-132.5c-37.9 0-63 3.4-74.8 10.2-9.9 5.7-16.9 14.9-19.9 25.9-2.9 11-1.4 22.5 4.3 32.4 5.7 9.9 14.9 16.9 25.9 19.9 11 2.9 22.5 1.4 32.4-4.3 14.4-8.3 34.4-36.4 59.5-83.6-9.8-0.4-18.9-0.5-27.4-0.5z" fill="#333333" p-id="1378"></path><path d="M835.4 672.4m-21.3 0a21.3 21.3 0 1 0 42.6 0 21.3 21.3 0 1 0-42.6 0Z" fill="#333333" p-id="1379"></path><path d="M856.6 632.8c-2.4 0-4.9-0.4-7.3-1.3-11.1-4-16.8-16.3-12.8-27.3 11.1-30.5 13.3-63.3 6.4-94.8-6.8-30.7-21.8-59-43.5-81.6-8.1-8.5-7.8-22 0.7-30.2 8.5-8.1 22-7.8 30.2 0.7 27.1 28.3 45.9 63.6 54.3 102 8.7 39.5 5.9 80.5-8 118.6-3.1 8.5-11.2 13.9-20 13.9z" fill="#333333" p-id="1380"></path></svg>